HIERARCHY
ROOT root     
{
	OFFSET 0.0000 0.0000 0.0000
	CHANNELS 6 Xposition Yposition Zposition Zrotation Yrotation Xrotation
	JOINT pelvis   
	{
		OFFSET 0.0000 0.0000 0.0000
		CHANNELS 3 Zrotation Yrotation Xrotation
		JOINT thorax   
		{
			OFFSET 0.0000 23.0750 -5.0000
			CHANNELS 3 Zrotation Yrotation Xrotation
			JOINT rclavicle
			{
				OFFSET 0.0000 28.0009 0.0000
				CHANNELS 3 Zrotation Yrotation Xrotation
				JOINT rhumerus 
				{
					OFFSET -18.5725 5.5939 0.0000
					CHANNELS 3 Zrotation Yrotation Xrotation
					JOINT rradius  
					{
						OFFSET -24.8459 0.0000 0.0000
						CHANNELS 3 Zrotation Yrotation Xrotation
						JOINT rhand    
						{
							OFFSET -24.5477 0.0000 0.0000
							CHANNELS 3 Zrotation Yrotation Xrotation
							End Site
							{
								OFFSET -8.1826 0.0000 0.0000
							}
						}
					}
				}
			}
			JOINT lclavicle
			{
				OFFSET 0.0000 28.0009 0.0000
				CHANNELS 3 Zrotation Yrotation Xrotation
				JOINT lhumerus 
				{
					OFFSET 18.5725 5.5939 0.0000
					CHANNELS 3 Zrotation Yrotation Xrotation
					JOINT lradius  
					{
						OFFSET 24.8459 0.0000 0.0000
						CHANNELS 3 Zrotation Yrotation Xrotation
						JOINT lhand    
						{
							OFFSET 24.5477 0.0000 0.0000
							CHANNELS 3 Zrotation Yrotation Xrotation
							End Site
							{
								OFFSET 8.1826 0.0000 0.0000
							}
						}
					}
				}
			}
			JOINT head     
			{
				OFFSET 0.0000 35.2030 0.0000
				CHANNELS 3 Zrotation Yrotation Xrotation
				End Site
				{
					OFFSET 0.0000 11.7343 0.0000
				}
			}
		}
		JOINT rfemur   
		{
			OFFSET -8.2817 0.0000 0.0000
			CHANNELS 3 Zrotation Yrotation Xrotation
			JOINT rtibia   
			{
				OFFSET 0.0000 -43.3627 0.0000
				CHANNELS 3 Zrotation Yrotation Xrotation
				JOINT rfoot    
				{
					OFFSET 0.0000 -38.2947 0.0000
					CHANNELS 3 Zrotation Yrotation Xrotation
					JOINT rtoes    
					{
						OFFSET 0.0000 0.0000 16.6054
						CHANNELS 3 Zrotation Yrotation Xrotation
						End Site
						{
							OFFSET 0.0000 0.0000 5.5351
						}
					}
				}
			}
		}
		JOINT lfemur   
		{
			OFFSET 8.2817 0.0000 0.0000
			CHANNELS 3 Zrotation Yrotation Xrotation
			JOINT ltibia   
			{
				OFFSET 0.0000 -43.3627 0.0000
				CHANNELS 3 Zrotation Yrotation Xrotation
				JOINT lfoot    
				{
					OFFSET 0.0000 -38.2947 0.0000
					CHANNELS 3 Zrotation Yrotation Xrotation
					JOINT ltoes    
					{
						OFFSET 0.0000 0.0000 16.6054
						CHANNELS 3 Zrotation Yrotation Xrotation
						End Site
						{
							OFFSET 0.0000 0.0000 5.5351
						}
					}
				}
			}
		}
	}
}
MOTION
Frames: 15
Frame Time: .0333333
85.346 57.941 11.875 103.073 -84.7286 -44.3563 0 -0 0 -2.53586 -10.3456 7.15813 26.1337 -10.4836 -1.62583e-05 55.1691 -7.17762 -51.8161 -0 8.65208 -0 -28.2561 18.3468 -4.65524 -22.7732 11.987 4.8545e-05 -51.5641 10.2466 -39.4764 0 -2.29783 0 35.075 -5.57091 -1.76179 2.61537 2.16039 -50.9134 0.883037 -10.4501 -109.217 -0 -0 103.97 5.2461e-05 -8.53568 -30.1347 4.30899 6.33852e-05 -65.3398 -8.15699 -2.56934 -107.926 -0 -0 101.881 -0.000102093 16.6368 -31.8831 -8.96878 -4.9311e-05 -46.2462 
84.984 57.855 11.849 102.131 -84.7262 -43.1761 0 -0 0 -2.40165 -10.3737 6.91395 26.3384 -10.3399 6.47881e-05 55.1883 -6.59774 -51.4881 -4.61511e-08 8.66817 -6.08944e-07 -28.5408 18.4212 -4.72345 -23.0011 11.7425 -0.000109537 -51.6389 9.73388 -39.2138 0 -2.11995 0 35.3258 -5.51053 -1.75586 2.60464 2.1218 -51.0927 0.895374 -10.5489 -109.25 -0 -0 104.352 9.51095e-07 -8.44366 -30.1405 4.26275 -1.34072e-06 -66.1075 -8.08447 -2.54692 -107.984 -0 -0 102.233 -7.47017e-05 16.4681 -31.8798 -8.87332 7.3742e-05 -47.3421 
84.605 57.813 11.821 101.096 -84.7092 -41.9102 0 -0 0 -2.24795 -10.397 6.63379 26.5512 -10.1777 -8.23093e-05 55.2024 -6.0091 -51.1087 -0 8.68519 -0 -28.8519 18.4852 -4.79406 -23.2395 11.4647 3.41463e-05 -51.7059 9.20199 -38.8792 0 -1.91744 0 35.5935 -5.40612 -1.73648 2.57634 2.06001 -51.2725 0.904813 -10.6422 -109.219 -0 -0 104.653 4.15656e-05 -8.39178 -30.1109 4.23263 3.80971e-05 -66.8664 -7.9952 -2.53744 -107.98 -0 -0 102.496 -2.2693e-05 16.3328 -31.841 -8.78804 -3.11231e-06 -48.3921 
84.208 57.816 11.79 99.9247 -84.7042 -40.5262 0 -0 0 -2.07968 -10.4161 6.32271 26.7659 -9.99091 3.78494e-05 55.2127 -5.41427 -50.6557 -4.62996e-08 8.69539 -6.08981e-07 -29.211 18.5416 -4.87128 -23.4871 11.1472 1.70579e-05 -51.7559 8.64634 -38.4832 0 -1.68306 0 35.8717 -5.251 -1.70068 2.52811 1.9716 -51.4601 0.902534 -10.7325 -109.115 -0 -0 104.873 1.8718e-06 -8.38778 -30.0585 4.22388 5.4282e-06 -67.5817 -7.88868 -2.54796 -107.902 -0 -0 102.663 -0.00020706 16.2374 -31.7756 -8.71872 -3.35776e-05 -49.3612 
83.79 57.866 11.758 98.6831 -84.6607 -39.0832 0 -0 0 -1.90217 -10.4318 5.98643 26.9827 -9.774 1.54942e-05 55.2172 -4.81063 -50.1259 -0 8.68369 -0 -29.6322 18.5983 -4.96007 -23.7444 10.7845 -1.2414e-05 -51.7802 8.05701 -38.0419 0 -1.41088 0 36.1528 -5.04149 -1.64651 2.45931 1.85618 -51.6632 0.879345 -10.822 -108.924 -0 -0 105.01 -2.47145e-05 -8.43546 -29.9992 4.24059 -1.85638e-05 -68.2193 -7.7648 -2.5831 -107.741 -0 -0 102.735 0.000133688 16.1812 -31.6928 -8.66783 -1.21513e-05 -50.2192 
83.351 57.965 11.725 97.3577 -84.6067 -37.5853 0 -0 0 -1.72121 -10.4456 5.63171 27.1977 -9.52249 -4.07955e-06 55.2161 -4.19496 -49.517 -0 8.63483 -0 -30.123 18.6606 -5.06319 -24.008 10.3742 -1.70828e-05 -51.7792 7.42563 -37.5754 0 -1.0995 0 36.4259 -4.77571 -1.57218 2.37171 1.71609 -51.8911 0.826056 -10.9122 -108.641 -0 -0 105.059 -5.9371e-05 -8.53369 -29.9472 4.28391 2.77907e-05 -68.7504 -7.62414 -2.64605 -107.487 -0 -0 102.707 -8.80869e-05 16.1608 -31.6036 -8.63468 3.746e-05 -50.9504 
82.886 58.115 11.691 95.9874 -84.5285 -36.0726 0 -0 0 -1.54362 -10.4592 5.26357 27.4073 -9.23288 1.76746e-05 55.2066 -3.55997 -48.8331 -0 8.53524 -0 -30.683 18.7329 -5.18215 -24.2736 9.91649 -6.73304e-05 -51.7487 6.74287 -37.0981 0 -0.752896 0 36.6793 -4.45632 -1.47791 2.26878 1.55579 -52.1476 0.733891 -11.0035 -108.246 -0 -0 105.017 2.41077e-05 -8.67697 -29.9184 4.35277 8.84991e-06 -69.1502 -7.46896 -2.73688 -107.131 -0 -0 102.578 4.15145e-05 16.1644 -31.5151 -8.61559 1.45703e-05 -51.5539 
82.396 58.316 11.655 94.6014 -84.4243 -34.5765 0 -0 0 -1.37479 -10.4737 4.88451 27.6114 -8.90383 -6.68796e-06 55.1866 -2.89545 -48.0815 -0 8.37643 -0 -31.303 18.8142 -5.31537 -24.534 9.41578 -4.97664e-05 -51.6911 6.00224 -36.6262 0 -0.381394 0 36.8985 -4.09086 -1.36529 2.15618 1.38152 -52.4315 0.597198 -11.0942 -107.731 -0 -0 104.877 4.17578e-05 -8.85666 -29.9208 4.44434 -4.27541e-05 -69.4152 -7.29997 -2.85325 -106.667 -0 -0 102.348 4.0988e-05 16.1803 -31.4304 -8.60367 3.57342e-05 -52.0484 
81.876 58.57 11.618 93.2453 -84.294 -33.1477 0 -0 0 -1.2181 -10.4918 4.4934 27.8059 -8.53746 9.02792e-06 55.1536 -2.18714 -47.3007 -0 8.14334 -0 -31.9566 18.9177 -5.46245 -24.7837 8.87672 2.3381e-05 -51.6144 5.2083 -36.1629 0 -0.0169 0 37.0737 -3.67637 -1.2331 2.03938 1.20232 -52.7382 0.413966 -11.1803 -107.091 -0 -0 104.631 -1.9571e-05 -9.06245 -29.9556 4.55354 -1.01001e-05 -69.552 -7.11908 -2.99001 -106.09 -0 -0 102.012 6.87522e-05 16.1936 -31.3448 -8.59073 3.29061e-05 -52.4691 
81.327 58.878 11.577 91.912 -84.1541 -31.7849 0 -0 0 -1.07681 -10.5078 4.08692 27.9895 -8.13363 4.44594e-05 55.1156 -1.44181 -46.4675 -4.18322e-08 7.87151 -6.08022e-07 -32.6252 18.9961 -5.60645 -25.0056 8.31337 4.1042e-06 -51.729 4.6209 -35.7289 1.82074e-09 -0.345599 -6.03714e-07 37.1856 -2.98225 -1.0034 1.92613 1.0196 -53.0577 0.184337 -11.2565 -106.314 -0 -0 104.272 -1.25854e-05 -9.28329 -30.0167 4.67466 9.98322e-06 -69.5891 -6.9276 -3.14031 -105.395 -0 -0 101.566 0.000176522 16.1923 -31.2491 -8.56697 7.52523e-05 -52.859 
80.748 59.241 11.533 90.6514 -83.9937 -30.5299 0 -0 0 -0.954603 -10.5215 3.66125 28.1564 -7.69947 4.98212e-05 55.0774 -0.652289 -45.6172 -4.02087e-08 7.57108 -6.07691e-07 -33.273 19.0511 -5.74073 -25.1868 7.74394 6.0993e-06 -51.8408 3.95201 -35.3112 0 -0.687896 0 37.2453 -2.31908 -0.78159 1.82367 0.839021 -53.3744 -0.0882734 -11.3173 -105.401 -0 -0 103.792 5.02381e-05 -9.5097 -30.0904 4.8008 4.40387e-05 -69.5576 -6.72705 -3.29754 -104.583 -0 -0 101.009 2.27348e-05 16.1671 -31.1309 -8.52394 -2.29412e-05 -53.2701 
80.136 59.659 11.483 89.4348 -83.8243 -29.3497 0 -0 0 -0.8402 -10.5351 3.19689 28.3019 -7.24263 4.21263e-05 55.0333 0.199238 -44.8136 -0 7.23682 -0 -33.8558 19.1139 -5.86688 -25.3301 7.16081 2.23135e-06 -51.9076 3.16397 -34.8664 4.82589e-09 -0.915907 -6.03769e-07 37.2513 -1.73091 -0.583398 1.73239 0.66961 -53.6638 -0.389898 -11.3518 -104.358 -0 -0 103.181 -5.05751e-07 -9.73789 -30.1526 4.92692 2.24233e-05 -69.5015 -6.51065 -3.45189 -103.661 -0 -0 100.334 9.1114e-05 16.1115 -30.9671 -8.45414 8.78459e-06 -53.7514 
79.491 60.132 11.427 88.2586 -83.6694 -28.2555 0 -0 0 -0.7435 -10.5388 2.69828 28.4135 -6.7729 -8.13793e-06 55.0117 1.09781 -44.0388 -0 6.93082 -0 -34.3527 19.1425 -5.96715 -25.4032 6.60645 -2.20688e-05 -51.9744 2.23811 -34.4261 0 -1.0823 0 37.2089 -1.29047 -0.434385 1.66141 0.503413 -53.9105 -0.718052 -11.3567 -103.18 -0 -0 102.436 3.79679e-05 -9.96297 -30.1818 5.0468 1.01173e-05 -69.4599 -6.2829 -3.5989 -102.624 -0 -0 99.5427 -8.3696e-07 16.0284 -30.7442 -8.35469 4.92629e-06 -54.3307 
78.813 60.659 11.362 87.1256 -83.5032 -27.2219 0 -0 0 -0.648197 -10.532 2.14244 28.4817 -6.29889 -3.88063e-05 55.0145 2.04217 -43.3394 -3.5352e-08 6.66866 -6.06792e-07 -34.7394 19.1662 -6.04617 -25.4121 6.07467 7.25707e-05 -52.0148 1.15696 -33.9314 0 -1.09979 0 37.1226 -1.0243 -0.344 1.60624 0.343026 -54.0847 -1.05336 -11.3213 -101.882 -0 -0 101.55 2.23639e-05 -10.1884 -30.1534 5.15838 -1.6343e-05 -69.467 -6.0343 -3.73056 -101.482 -0 -0 98.6269 4.81322e-05 15.9232 -30.4427 -8.22547 -6.43409e-05 -55.0263 
78.099 61.239 11.288 86.0054 -83.359 -26.2375 0 -0 0 -0.555097 -10.5097 1.52789 28.4926 -5.83052 1.5054e-05 55.0623 3.0257 -42.7322 -3.43622e-08 6.48407 -6.06628e-07 -35.0003 19.1996 -6.10517 -25.346 5.56866 -1.01501e-05 -52.0321 -0.0888238 -33.3551 0 -0.936009 0 36.9968 -0.9698 -0.324408 1.56746 0.181382 -54.1673 -1.38682 -11.2439 -100.466 -0 -0 100.521 -2.15596e-05 -10.4181 -30.0466 5.25982 -1.29557e-05 -69.5425 -5.76437 -3.8457 -100.235 -0 -0 97.5847 1.13236e-05 15.8091 -30.0537 -8.07083 1.73331e-05 -55.8258 
